<svg width="400" height="200" viewBox="0 0 400 200" fill="none" xmlns="http://www.w3.org/2000/svg">
<path d="M280.425 16.1287C280.206 16.7659 279.952 17.4396 279.879 17.6398C279.715 18.0585 278.732 20.8259 277.876 23.2837C277.33 24.8312 276.547 27.107 275.946 28.782C275.546 29.8925 275.327 30.02 274.29 29.6923C273.816 29.5467 272.76 29.2918 271.959 29.1279C271.158 28.9458 270.193 28.7273 269.811 28.6363C268.427 28.2721 263.493 27.4711 260.307 27.107C255.537 26.5608 254.026 26.4698 249.657 26.4698C245.506 26.4698 241.391 26.7247 238.096 27.2162C237.404 27.3072 236.257 27.4711 235.547 27.5622C234.855 27.6532 233.908 27.817 233.453 27.9263C232.998 28.0355 231.906 28.2721 230.995 28.4724C228.465 29.0368 224.842 30.0199 224.332 30.293C224.168 30.3841 223.731 30.5116 223.367 30.5662C223.003 30.639 222.657 30.7664 222.602 30.8575C222.548 30.9485 222.384 31.0213 222.238 31.0213C221.983 31.0213 219.198 32.0591 218.069 32.5506C217.778 32.6962 217.068 32.9877 216.522 33.2061C215.065 33.7887 208.984 36.8655 207.928 37.5391C207.673 37.703 207.054 38.0852 206.563 38.3766C205.015 39.305 199.135 43.2922 198.407 43.9112C198.206 44.0932 197.424 44.7123 196.677 45.3131C195.931 45.9139 195.202 46.4964 195.075 46.6239C194.947 46.7331 194.456 47.1518 193.983 47.5342C191.197 49.7917 186.445 54.5253 184.333 57.147C181.948 60.1328 177.124 65.977 176.068 67.1603C175.813 67.4516 175.412 67.9068 175.194 68.1617C174.375 69.1084 172.681 71.0382 171.098 72.8042C170.205 73.8056 169.386 74.7159 169.277 74.8251C168.166 76.0995 166.546 77.6106 166.419 77.4832C166.346 77.4104 166.236 75.4987 166.182 73.2594C166.073 68.4347 165.945 66.778 165.672 66.5596C165.526 66.4503 164.598 66.5049 163.178 66.7234C161.922 66.9054 160.21 67.1421 159.355 67.2514C158.499 67.3606 156.824 67.5973 155.622 67.7976C154.421 67.9978 153.146 68.1981 152.8 68.2527C152.454 68.3073 151.271 68.4712 150.161 68.635C149.068 68.7807 147.63 68.9809 146.974 69.0902C146.319 69.1994 144.935 69.3997 143.879 69.5272C140.857 69.9277 139.273 70.1643 138.946 70.2554C138.636 70.3646 138.327 71.1474 138.509 71.4205C138.563 71.5116 138.673 74.5702 138.782 78.2114C138.873 81.8344 139.037 86.75 139.128 89.0987C139.237 91.4472 139.364 95.4708 139.419 98.056L139.546 102.717L139.018 103.172C138.399 103.736 133.193 107.669 131.827 108.616C131.299 108.998 130.243 109.726 129.497 110.254C128.75 110.8 127.803 111.419 127.403 111.674C127.002 111.911 125.764 112.694 124.672 113.386C121.923 115.133 121.013 115.698 119.119 116.735C118.664 116.972 118.027 117.336 117.699 117.537C116.006 118.556 111.782 120.704 109.015 121.942C108.414 122.216 107.686 122.543 107.376 122.689C106.339 123.144 103.735 124.2 102.825 124.509C102.333 124.673 101.751 124.892 101.55 124.983C99.9118 125.675 92.7386 127.696 91.8465 127.696C91.6098 127.696 91.2639 127.768 91.0818 127.878C90.7359 128.06 87.6409 128.497 84.4366 128.806C81.6147 129.079 73.6041 128.915 71.4193 128.533C64.4646 127.35 58.6933 125.256 52.9402 121.797C50.2821 120.213 46.7319 117.628 44.6564 115.789C42.5081 113.859 36.7368 107.924 35.4441 106.303C34.6613 105.302 33.9148 104.392 33.8056 104.283C33.6963 104.155 33.0591 103.281 32.3673 102.316C31.0018 100.386 30.6195 100.059 30.2736 100.477C30.0369 100.769 29.9823 100.66 32.0942 103.627C32.7861 104.61 34.0969 106.231 36.3362 108.943C39.7043 113.003 45.7306 118.429 49.9362 121.214C53.2497 123.417 57.9104 125.875 60.1316 126.603C60.3864 126.694 61.0419 126.931 61.588 127.149C64.3189 128.224 67.9055 129.097 71.9655 129.644C73.1671 129.826 73.422 130.263 72.4935 130.59C71.037 131.1 69.981 132.502 69.9628 133.904C69.9628 134.905 69.6351 135.069 68.2697 134.796C66.5401 134.45 63.5179 133.594 61.497 132.848C59.4215 132.101 54.0689 129.553 52.8855 128.77C52.4486 128.478 52.0662 128.242 52.0298 128.242C51.9024 128.242 50.2457 127.095 48.7527 125.984C43.564 122.106 38.3025 116.681 34.0605 110.855C32.4583 108.634 32.076 108.106 31.9122 107.76C31.4388 106.777 29.6 104.301 29.3633 104.301C28.8717 104.301 28.9628 104.938 29.6546 106.067C30.6924 107.778 32.9135 111.019 34.2607 112.767C34.9162 113.622 35.8811 114.878 36.4272 115.589C38.1932 117.883 41.7252 121.56 44.4743 124C46.1493 125.474 51.6475 129.516 51.9934 129.516C52.0662 129.516 52.4668 129.735 52.9037 130.008C53.3225 130.263 54.6879 131.009 55.9442 131.628C58.0015 132.648 58.8571 133.03 60.8598 133.813C61.7337 134.14 65.3749 135.287 66.0485 135.433C70.1267 136.307 69.799 136.07 69.5805 137.891C69.5077 138.546 69.3802 139.602 69.3074 140.258C69.1072 142.115 69.1436 142.097 67.3776 141.696C65.1928 141.223 64.3189 141.004 63.4997 140.713C59.4397 139.293 58.1471 138.765 55.5618 137.436C54.3056 136.799 54.0508 136.653 51.9024 135.36C50.4824 134.505 46.8047 131.756 45.2936 130.408C43.3455 128.697 40.7421 126.075 39.5041 124.601C38.7758 123.745 38.1386 123.017 38.084 122.962C37.8109 122.725 34.8069 118.738 34.1697 117.773C33.7874 117.172 33.4051 116.644 33.3504 116.59C33.2048 116.481 30.7105 112.311 30.0369 111.073C28.3802 108.069 28.2527 107.869 27.9978 107.96C27.3606 108.215 27.9068 109.49 30.5103 113.859C32.2581 116.772 35.4987 121.578 36.5729 122.835C36.755 123.053 37.2829 123.69 37.7381 124.236C38.1932 124.783 38.6302 125.329 38.7394 125.438C38.8305 125.547 39.4859 126.257 40.1777 127.04C42.3078 129.407 46.8593 133.303 49.9362 135.379C52.4304 137.09 55.489 138.728 58.2745 139.912C59.2395 140.312 60.2954 140.768 60.6231 140.913C60.9326 141.059 61.3513 141.168 61.5334 141.168C61.7155 141.168 61.9522 141.241 62.0614 141.332C62.1524 141.423 62.8807 141.678 63.6817 141.896C64.4828 142.115 65.5023 142.406 65.9575 142.534C66.4127 142.679 67.1591 142.825 67.6143 142.898C68.7976 143.043 69.1072 143.444 68.8887 144.463C68.7976 144.9 68.6702 145.92 68.5974 146.721C68.5428 147.522 68.4517 148.359 68.4153 148.56C68.2515 149.306 67.942 149.288 64.2279 148.232C61.406 147.431 58.2927 146.284 57.8194 145.847L57.4189 145.501L57.9468 144.827C58.6933 143.881 58.7843 143.335 58.3109 142.497C57.692 141.387 57.0547 141.113 54.8518 141.022C53.2497 140.968 52.7581 141.004 51.8478 141.332C51.2652 141.55 50.6098 141.714 50.4277 141.714C49.7723 141.714 45.2026 138.037 42.4171 135.233C40.469 133.303 37.3376 129.625 36.1542 127.932C35.7536 127.35 34.9526 126.166 34.3518 125.311C33.132 123.526 33.0409 123.417 32.2581 122.052C30.5285 119.084 29.0356 116.171 28.0707 113.95C27.6519 112.949 27.2332 112.057 27.1604 111.984C26.9965 111.783 26.2683 112.002 26.2683 112.239C26.2683 112.493 26.9055 113.859 28.7443 117.591C30.8016 121.76 31.6027 123.126 33.933 126.549C34.4246 127.259 34.8251 127.914 34.8251 127.969C34.8251 128.387 40.0139 134.486 42.0347 136.453C43.9646 138.31 47.3327 141.168 48.425 141.86C49.2625 142.388 49.3718 142.697 48.953 143.498C48.8256 143.771 48.6071 144.718 48.4979 145.61C48.3704 146.502 48.1884 147.394 48.0973 147.577C47.9335 147.904 47.8607 147.886 47.1506 147.322C42.7448 143.935 38.0294 138.783 34.8069 133.849C32.4401 130.244 31.8211 129.207 30.5467 126.712C28.9628 123.617 26.0862 116.863 26.0862 116.226C26.0862 115.989 25.3944 115.643 25.1759 115.771C24.9574 115.898 24.9392 116.626 25.1395 116.881C25.2123 116.972 25.4672 117.537 25.7039 118.137C26.4503 120.085 26.9055 121.214 27.8704 123.417C28.5258 124.928 31.3114 130.426 31.6027 130.772C31.7301 130.936 32.0214 131.428 32.2763 131.883C33.4597 134.122 37.2101 139.22 39.5223 141.732C41.4521 143.863 43.6186 145.883 45.9308 147.74C47.0778 148.669 48.0609 149.488 48.0973 149.597C48.1338 149.688 48.0245 151.09 47.8789 152.711C47.715 154.313 47.4601 157.08 47.2963 158.828C47.1506 160.576 46.9322 162.87 46.8229 163.926C46.2767 169.387 46.2949 169.278 46.5316 169.515C46.7137 169.715 48.8256 169.752 56.8545 169.77C68.3425 169.77 67.414 169.915 67.414 168.131C67.414 167.567 67.505 166.62 67.596 166.019C67.6871 165.419 67.9055 163.653 68.0512 162.105C68.1968 160.558 68.3971 159.028 68.4699 158.737C68.652 158.1 68.5974 158.1 71.7834 158.555C75.2426 159.028 77.3545 159.174 80.8864 159.174C85.1285 159.192 90.6631 158.755 94.541 158.118C98.692 157.444 101.223 156.953 102.825 156.552C104.026 156.243 105.337 155.933 106.521 155.696C107.686 155.478 108.013 155.66 108.013 156.625C108.013 156.989 108.105 157.608 108.196 158.009C108.359 158.773 108.833 161.559 109.106 163.489C109.197 164.108 109.397 165.255 109.543 166.038C110.144 169.242 110.253 170.316 110.053 170.516C109.597 170.971 106.448 169.679 105.01 168.477C103.735 167.403 102.37 165.437 102.37 164.654C102.37 164.253 101.186 162.524 100.203 161.504C99.2564 160.503 97.9092 159.738 97.0899 159.738C96.4345 159.738 96.4163 159.793 96.9806 160.521C97.6543 161.413 98.4917 163.179 98.7284 164.199C99.3838 167.057 101.022 169.788 102.879 171.208C104.937 172.737 107.212 173.538 110.125 173.702C111.855 173.793 112.001 173.775 112.365 173.411C112.62 173.156 112.729 172.883 112.656 172.701C112.583 172.537 112.419 171.7 112.292 170.844C112.164 169.988 111.964 168.805 111.873 168.204C111.764 167.603 111.545 166.292 111.382 165.291C111.218 164.29 110.963 162.815 110.835 162.014C110.69 161.213 110.49 159.939 110.362 159.192C110.253 158.446 110.053 157.226 109.925 156.479C109.725 155.241 109.743 155.096 110.053 154.786C110.235 154.604 110.508 154.458 110.672 154.458C110.835 154.458 111.345 154.331 111.819 154.185C112.274 154.04 113.93 153.494 115.478 153.002C117.026 152.492 118.446 152.001 118.609 151.91C118.792 151.8 119.01 151.728 119.119 151.728C119.228 151.728 120.048 151.436 120.94 151.09C121.85 150.744 123.343 150.162 124.272 149.816C125.182 149.452 126.11 149.088 126.311 148.997C126.511 148.906 127.13 148.651 127.676 148.432C128.222 148.214 129.169 147.813 129.77 147.54C130.371 147.267 131.062 146.994 131.317 146.921C131.809 146.776 131.936 146.721 133.684 145.938C137.362 144.281 144.098 140.968 146.792 139.511C147.539 139.111 148.74 138.474 149.432 138.109C150.142 137.745 151.508 136.981 152.491 136.398C153.474 135.815 154.33 135.342 154.366 135.342C154.421 135.342 155.695 134.596 157.224 133.685C160.847 131.537 160.611 131.683 161.503 131.1C161.94 130.827 162.322 130.609 162.359 130.609C162.395 130.609 162.777 130.39 163.214 130.099C163.651 129.826 164.161 129.516 164.361 129.389C164.562 129.261 165.162 128.897 165.69 128.569C166.236 128.242 166.801 127.878 166.965 127.787C167.147 127.677 168.385 126.858 169.732 125.966C171.079 125.056 172.281 124.291 172.372 124.236C172.645 124.091 173.628 123.435 173.737 123.326C173.792 123.271 174.411 122.835 175.103 122.379C175.813 121.906 176.869 121.178 177.47 120.759C178.07 120.34 179.09 119.63 179.727 119.175C180.383 118.738 182.385 117.245 184.188 115.88C187.246 113.568 188.885 112.439 189.832 112.02C190.05 111.929 190.469 111.692 190.76 111.51C191.488 111.037 192.071 110.727 195.403 109.016C200.464 106.394 207.218 103.682 211.606 102.48C212.261 102.316 213.154 102.043 213.609 101.916C214.592 101.606 216.959 101.06 219.071 100.66C219.926 100.496 221.037 100.277 221.528 100.186C222.038 100.077 223.13 99.9313 223.986 99.8403C224.842 99.7492 226.062 99.5854 226.717 99.4943C227.372 99.3851 230.522 99.2941 233.726 99.2941C239.625 99.2941 242.52 99.4943 247.381 100.295C252.588 101.133 257.977 102.553 263.22 104.483C263.93 104.738 264.695 105.029 264.95 105.102C266.916 105.775 272.96 108.561 276.42 110.418C281.881 113.331 284.43 114.915 291.531 119.812C293.042 120.85 295.445 122.652 296.264 123.362C296.41 123.49 297.102 124.036 297.812 124.582C298.504 125.128 299.705 126.093 300.452 126.749C302.691 128.679 303.802 129.625 304.293 130.081C304.548 130.317 305.458 131.136 306.296 131.883C313.378 138.182 325.139 151.09 330.838 158.81C331.183 159.265 331.511 159.684 331.584 159.738C331.711 159.847 333.605 162.36 334.388 163.452C334.661 163.871 335.08 164.399 335.298 164.654C335.517 164.909 336.154 165.746 336.7 166.529C337.246 167.312 337.938 168.295 338.247 168.714C339.959 171.026 344.529 177.871 347.259 182.223C347.696 182.933 348.17 183.661 348.297 183.861C348.406 184.062 348.698 184.571 348.916 184.99C349.262 185.682 349.389 185.773 349.936 185.773C350.537 185.773 350.555 185.755 350.3 185.354C350.154 185.136 349.444 183.971 348.716 182.769C347.988 181.567 347.005 179.965 346.513 179.219C346.021 178.472 345.548 177.726 345.475 177.58C345.311 177.234 340.76 170.534 338.957 167.967C338.175 166.839 336.536 164.599 336.354 164.381C336.154 164.126 334.206 161.541 333.405 160.466C332.312 158.974 328.889 154.604 327.706 153.184C326.086 151.236 322.099 146.593 321.771 146.248C321.607 146.084 321.116 145.556 320.679 145.064C315.199 139.038 310.155 133.958 305.458 129.771C302.054 126.731 296.191 121.924 293.788 120.213C293.151 119.758 292.441 119.212 292.204 118.993C291.458 118.301 285.996 114.642 283.32 113.04C282.373 112.493 281.481 111.947 281.335 111.856C281.19 111.747 280.935 111.62 280.789 111.547C280.643 111.474 279.824 111.019 278.968 110.527C277.457 109.653 270.903 106.376 269.665 105.866C269.319 105.721 268.718 105.484 268.318 105.302C267.917 105.138 267.226 104.847 266.77 104.683C266.315 104.501 265.714 104.246 265.405 104.119C264.058 103.536 259.069 101.879 256.757 101.242C256.211 101.096 255.264 100.842 254.663 100.678C251.204 99.7127 246.307 98.8936 240.827 98.3474C236.639 97.9286 228.465 98.1835 224.168 98.8571C223.222 99.0027 222.238 99.112 221.983 99.112C221.729 99.112 221 99.2212 220.345 99.3669C219.689 99.5125 218.506 99.7674 217.705 99.9313C216.23 100.223 214.1 100.751 212.425 101.224C209.931 101.934 209.476 102.08 208.912 102.316C208.584 102.462 208.183 102.571 208.038 102.571C207.874 102.571 207.491 102.68 207.182 102.826C206.854 102.953 206.108 103.245 205.507 103.463C202.976 104.41 201.611 104.974 199.226 106.049C197.733 106.74 192.508 109.38 191.215 110.09C190.76 110.345 190.196 110.673 189.941 110.818C187.483 112.202 186.5 112.839 184.898 114.077C183.878 114.86 183.004 115.497 182.95 115.497C182.895 115.497 182.221 115.971 181.439 116.572C180.656 117.154 179.563 117.937 179.017 118.319C178.471 118.702 177.451 119.43 176.741 119.903C172.499 122.853 168.294 125.657 163.997 128.333C161.721 129.753 154.475 134.068 154.366 134.068C154.33 134.068 153.693 134.414 152.946 134.851C151.562 135.67 149.851 136.635 147.066 138.109C145.372 139.02 136.014 143.68 134.23 144.482C130.316 146.284 129.497 146.648 128.404 147.067C127.949 147.249 127.348 147.504 127.039 147.631C126.748 147.777 125.71 148.177 124.763 148.542C123.816 148.906 122.797 149.324 122.487 149.452C122.196 149.579 121.723 149.761 121.431 149.816C121.158 149.889 120.885 150.016 120.831 150.107C120.776 150.198 120.594 150.271 120.43 150.271C120.175 150.271 118.664 150.799 117.845 151.163C117.699 151.236 116.589 151.6 115.387 151.982C114.185 152.365 112.911 152.784 112.565 152.911C111.181 153.384 110.053 153.73 109.78 153.73C109.579 153.73 109.452 153.494 109.379 153.057C109.306 152.674 109.16 151.746 109.015 150.999C108.359 147.285 108.323 146.958 108.578 146.721C108.724 146.593 109.415 146.32 110.107 146.084C110.817 145.865 111.545 145.629 111.746 145.537C112.219 145.319 113.585 144.846 114.386 144.591C114.732 144.5 115.096 144.336 115.205 144.245C115.296 144.154 115.478 144.081 115.624 144.081C115.751 144.081 116.206 143.935 116.625 143.753C117.044 143.571 117.754 143.262 118.209 143.08C118.664 142.898 119.301 142.643 119.629 142.515C119.938 142.37 120.521 142.133 120.903 141.969C123.853 140.731 126.11 139.675 131.408 137.053C136.342 134.614 137.944 133.776 140.111 132.557C140.584 132.283 141.349 131.846 141.84 131.573C143.606 130.59 150.215 126.621 151.799 125.602C156.988 122.252 162.978 118.174 166.692 115.443C167.62 114.769 168.567 114.077 168.822 113.895C169.768 113.24 174.757 109.453 175.194 109.071C175.449 108.852 176.396 108.106 177.288 107.396C178.835 106.212 180.146 105.156 182.203 103.427C182.695 103.008 183.387 102.425 183.751 102.116C184.097 101.825 185.007 101.042 185.753 100.368C187.173 99.1302 189.467 97.4552 191.798 95.9988C193.509 94.9064 195.949 93.4681 196.076 93.4681C196.131 93.4681 196.368 93.3042 196.622 93.104C196.877 92.9037 197.296 92.7399 197.551 92.7399C197.988 92.7399 197.988 92.7582 197.879 93.8687C197.824 94.5059 197.733 95.9624 197.678 97.1093C197.624 98.2563 197.478 100.168 197.369 101.37C197.15 103.827 197.15 103.846 198.516 103.846C199.244 103.846 199.39 103.791 199.463 103.427C199.554 103.045 199.699 101.115 200.154 94.5605C200.264 92.9219 200.427 91.4291 200.5 91.2652C200.701 90.901 204.287 89.1169 207.127 87.9881C207.637 87.7878 208.311 87.5148 208.602 87.3873C209.203 87.1325 209.494 87.0231 212.243 86.0582C213.245 85.6941 214.319 85.3482 214.61 85.2754C214.919 85.2026 215.866 84.9112 216.758 84.6564C217.632 84.4015 218.452 84.183 218.597 84.183C218.743 84.183 219.253 84.0738 219.726 83.9282C221.565 83.4002 225.752 82.6173 228.082 82.3624C229.084 82.2532 230.486 82.0893 231.178 81.9983C233.18 81.7252 241.464 81.7799 244.595 82.0894C247.836 82.3989 251.077 82.8358 252.752 83.1817C253.407 83.3273 254.226 83.4912 254.572 83.5458C258.232 84.2012 263.766 85.8033 268.427 87.5694C269.665 88.0427 270.994 88.5343 271.377 88.6617C271.741 88.8074 272.196 88.9894 272.378 89.0804C272.542 89.1715 273.434 89.5539 274.326 89.9362C275.873 90.5916 282.901 94.0871 284.885 95.1977C287.234 96.4903 291.294 99.0028 293.879 100.732C294.717 101.297 295.791 101.989 296.246 102.298C298.067 103.463 304.621 108.342 305.094 108.852C305.203 108.98 305.64 109.344 306.095 109.672C307.698 110.891 311.339 113.932 313.287 115.698C319.586 121.414 327.124 128.915 330.674 132.975C331.42 133.831 332.076 134.559 332.13 134.614C332.767 135.251 337.319 140.531 338.866 142.442C339.322 142.989 339.777 143.553 339.904 143.68C340.032 143.808 340.523 144.427 340.978 145.046C341.452 145.665 342.107 146.466 342.417 146.812C343.072 147.522 347.66 153.585 348.843 155.278C349.262 155.879 349.99 156.898 350.445 157.554C350.919 158.209 351.902 159.593 352.612 160.648C353.322 161.704 354.287 163.088 354.742 163.744C355.179 164.399 355.78 165.309 356.053 165.783C356.781 167.039 357.801 166.966 357.145 165.728C355.634 162.779 344.328 147.249 340.614 142.989C340.396 142.734 339.686 141.878 339.048 141.095C338.393 140.294 337.501 139.22 337.046 138.728C336.591 138.219 335.808 137.308 335.316 136.708C334.806 136.107 333.951 135.124 333.405 134.523C332.858 133.922 331.912 132.866 331.311 132.174C329.017 129.516 321.425 121.833 317.948 118.611C314.452 115.388 311.849 113.058 310.374 111.856C309.573 111.219 308.845 110.582 308.735 110.473C308.644 110.363 308.044 109.89 307.425 109.417C306.806 108.961 306.186 108.452 306.041 108.306C305.895 108.179 305.258 107.651 304.621 107.177C303.984 106.686 302.764 105.757 301.908 105.102C301.052 104.465 300.033 103.7 299.632 103.427C298.649 102.771 297.084 101.679 296.082 100.951C295.318 100.405 291.458 97.8194 290.693 97.346C288.654 96.0716 285.341 94.1781 283.884 93.4317C283.538 93.2678 283.065 92.9584 282.828 92.7945C282.428 92.4668 282.5 92.4485 285.741 92.4668C288.654 92.4668 289.273 92.4122 290.602 92.048C294.407 91.0103 296.901 89.0622 297.885 86.3677C298.34 85.1479 299.195 83.473 299.414 83.4002C299.924 83.1999 304.548 86.2949 310.975 91.1013C313.797 93.2314 314.561 93.814 315.089 94.2874C315.199 94.3966 315.581 94.6879 315.927 94.9246C316.273 95.1795 316.764 95.5436 317.019 95.7621C317.274 95.9805 318.221 96.7816 319.113 97.5281C322.536 100.386 323.719 101.388 325.376 102.917C326.322 103.773 327.633 104.974 328.289 105.557C329.909 107.032 341.088 118.192 342.307 119.576C342.854 120.195 344.019 121.469 344.874 122.416C346.549 124.236 349.99 128.224 352.394 131.155C353.195 132.101 353.977 133.048 354.141 133.248C354.56 133.758 357.255 137.236 358.784 139.238C359.476 140.148 360.058 140.931 360.095 140.968C360.204 141.095 360.714 140.585 360.714 140.349C360.714 140.221 359.548 138.601 358.128 136.762C353.777 131.155 354.141 131.61 350.009 126.803C349.535 126.257 348.643 125.201 348.006 124.437C347.369 123.672 346.003 122.143 344.984 121.05C343.964 119.94 342.635 118.52 342.052 117.864C340.651 116.317 337.337 112.93 334.515 110.163C331.275 106.977 330.765 106.485 328.762 104.665C327.761 103.755 326.741 102.826 326.486 102.571C325.339 101.442 318.931 95.9988 316.582 94.1418C310.793 89.6266 308.062 87.6239 302.818 84.092C301.362 83.1271 300.124 82.235 300.069 82.144C299.905 81.889 300.051 81.3974 300.67 80.1413C300.943 79.5586 301.18 79.0489 301.18 78.9943C301.18 78.9579 301.544 78.1386 301.999 77.1919C302.454 76.227 302.818 75.4077 302.818 75.3713C302.818 75.3349 303.183 74.4974 303.638 73.5325C304.093 72.5494 304.675 71.2568 304.93 70.6378C305.44 69.4544 306.35 67.4335 306.696 66.7234C306.806 66.4867 307.006 66.2682 307.133 66.2137C307.242 66.159 308.062 66.6142 308.954 67.1968C309.828 67.7793 310.683 68.3073 310.829 68.3984C312.613 69.2904 327.87 80.378 328.944 81.5432C329.053 81.6524 329.709 82.1985 330.401 82.7629C331.111 83.3273 331.839 83.9463 332.039 84.1284C332.239 84.3104 332.822 84.7838 333.314 85.1844C333.823 85.5849 334.37 86.0765 334.552 86.2585C334.843 86.5862 334.952 86.9139 334.77 86.9139C334.734 86.9139 333.896 87.0961 332.913 87.2963C329.308 88.0791 326.377 89.9908 325.212 92.2847C324.811 93.0858 324.757 93.4317 324.757 95.0156C324.775 96.6723 324.811 96.9273 325.303 97.8376C325.849 98.8389 326.85 99.9494 328.216 101.096C329.254 101.952 331.948 103.19 333.86 103.682C335.316 104.064 335.881 104.119 338.957 104.101C342.125 104.082 342.544 104.046 343.873 103.627C345.694 103.045 347.369 102.152 348.552 101.151C349.044 100.732 349.535 100.386 349.626 100.386C349.863 100.386 351.993 102.571 358.256 109.198C358.365 109.307 359.585 110.691 360.969 112.275C362.352 113.841 363.554 115.133 363.627 115.133C363.699 115.133 363.863 115.006 363.991 114.86C364.173 114.642 364.173 114.533 363.973 114.259C363.699 113.895 361.588 111.456 361.442 111.31C361.387 111.255 360.695 110.473 359.894 109.581C358.019 107.45 357.054 106.413 353.431 102.699C350.719 99.9131 350.427 99.5489 350.445 99.0027C350.464 98.2927 350.646 97.8558 352.885 93.013C353.195 92.3576 353.431 91.7931 353.431 91.7386C353.431 91.6839 353.704 91.0467 354.05 90.3367C354.979 88.3704 355.798 86.568 355.798 86.4771C355.798 86.4042 356.199 85.5121 357.637 82.3989C357.946 81.7435 358.274 81.2701 358.438 81.2701C358.602 81.2701 360.586 83.1089 362.862 85.3664C365.138 87.6239 367.049 89.4628 367.104 89.4628C367.177 89.4628 367.322 89.3536 367.432 89.2079C367.614 88.9894 367.395 88.6435 366.212 87.3327C365.411 86.4588 364.246 85.2389 363.608 84.6564C360.641 81.8708 358.984 80.2505 358.875 79.9957C358.82 79.85 359.039 79.1764 359.385 78.5027C359.712 77.8291 359.985 77.2283 359.985 77.1919C359.985 77.1372 360.35 76.2998 360.805 75.3349C361.26 74.3699 361.624 73.5689 361.624 73.5325C361.624 73.496 361.915 72.8407 362.279 72.0396C363.426 69.5454 363.663 69.0174 364.264 67.6155C364.592 66.8691 365.083 65.7585 365.338 65.1577C365.611 64.5569 365.902 63.9015 365.993 63.7012C366.085 63.501 366.412 62.7544 366.722 62.0627C367.049 61.3526 367.468 60.4241 367.668 59.9689C367.869 59.5138 368.269 58.6399 368.561 58.0209C368.852 57.3837 369.088 56.8375 369.088 56.8011C369.088 56.7464 369.38 56.0728 369.744 55.29C370.108 54.5071 370.563 53.5058 370.763 53.0507C370.964 52.5956 371.565 51.321 372.092 50.2287C372.62 49.1181 373.221 47.8437 373.44 47.3522C373.64 46.8788 373.986 46.1323 374.204 45.6772C374.787 44.4028 374.678 44.2935 371.947 43.4014C370.636 42.9645 368.652 42.3091 367.541 41.9449C366.449 41.5626 362.917 40.3974 359.712 39.3232C356.508 38.2491 353.723 37.3024 353.522 37.2114C353.322 37.1204 352.139 36.7198 350.882 36.3193C349.626 35.9187 346.568 34.881 344.055 34.0253C341.561 33.1696 337.337 31.7314 334.679 30.8392C332.021 29.9471 328.179 28.6363 326.122 27.9263C323.901 27.1616 322.226 26.6883 321.989 26.7429C321.735 26.7976 321.534 27.0342 321.461 27.3073C321.389 27.5622 321.116 28.2358 320.842 28.8002C320.569 29.3827 320.132 30.4023 319.841 31.1123C319.24 32.6781 318.439 34.5351 317.656 36.21C317.329 36.9018 316.673 38.3766 316.2 39.4871C315.726 40.5795 315.271 41.5626 315.217 41.6719C315.144 41.7629 314.78 42.5821 314.379 43.4925C313.997 44.3846 313.542 45.2948 313.342 45.4951C313.014 45.841 313.014 45.841 312.067 45.3677C311.539 45.0946 310.574 44.5666 309.919 44.2025C304.493 41.162 298.649 38.3401 291.986 35.5546C289.674 34.5896 286.56 33.4427 283.975 32.587C282.573 32.1319 281.19 31.6586 280.88 31.5493C280.589 31.4401 280.006 31.2762 279.606 31.1851C278.186 30.8392 278.167 30.7118 279.242 27.8353C279.606 26.834 280.024 25.6869 280.152 25.2864C280.297 24.8858 280.68 23.7753 281.026 22.8286C281.353 21.8819 281.863 20.4436 282.136 19.6425C282.409 18.8415 282.755 17.9311 282.883 17.6398C283.01 17.3303 283.174 16.8023 283.247 16.4382L283.374 15.7828L282.282 15.4005C281.699 15.182 281.117 15 281.026 15C280.916 15 280.643 15.5097 280.425 16.1287ZM252.297 27.6532C256.611 27.7442 258.632 27.9263 263.22 28.5999C267.608 29.2371 274.563 30.7481 274.836 31.0942C274.909 31.2033 274.945 31.4582 274.89 31.6585C274.817 32.0772 273.762 35.1177 273.507 35.6639C273.416 35.8641 273.124 36.6834 272.851 37.4845C272.578 38.2855 272.068 39.7238 271.741 40.6705C271.395 41.6172 271.031 42.6914 270.921 43.0374C270.83 43.3833 270.685 43.7474 270.63 43.8566C270.557 43.9477 270.248 44.8033 269.938 45.7501C269.611 46.6786 269.228 47.5706 269.083 47.7162C268.864 47.9529 268.518 47.9165 266.479 47.4432C261.236 46.2234 258.869 45.8229 252.934 45.1857C250.603 44.949 240.135 44.9671 238.096 45.222C237.204 45.3495 235.802 45.4951 235.001 45.5862C231.087 45.9685 224.496 47.4613 220.563 48.8268C219.981 49.0271 219.689 49.0453 219.362 48.8997C218.178 48.3717 216.34 48.044 214.428 48.044C210.951 48.044 208.256 48.8086 205.398 50.6292C204.196 51.3756 202.321 53.2691 202.321 53.7061C202.321 54.0702 201.775 54.5071 201.32 54.5071C200.719 54.5071 200.5 54.9988 200.5 56.4188C200.5 58.0756 200.191 58.6945 199.026 59.4228C197.879 60.1146 193.764 63.0639 193.491 63.3553C193.4 63.4827 192.526 64.1745 191.561 64.921C188.411 67.3424 186.136 69.4725 183.223 72.7314C179.764 76.6275 168.239 88.3522 167.438 88.7892C167.238 88.8984 167.092 88.8802 167.001 88.7527C166.928 88.6253 166.819 87.2781 166.764 85.767C166.692 84.2377 166.582 82.2168 166.528 81.2519L166.4 79.4858L167.93 77.8837C168.785 76.9916 170.205 75.4441 171.098 74.4428C172.008 73.4414 172.791 72.5857 172.845 72.5311C172.9 72.4765 173.847 71.4206 174.921 70.1644C175.995 68.9082 176.942 67.8522 176.996 67.7976C177.069 67.7429 177.47 67.2514 177.925 66.7052C178.38 66.159 178.89 65.54 179.054 65.3397C179.217 65.1394 179.855 64.3567 180.474 63.6102C181.093 62.8638 181.784 62.0445 182.003 61.7896C182.203 61.5347 183.368 60.0964 184.552 58.6035C187.811 54.5071 193.309 49.191 198.498 45.1128C200.027 43.9112 201.028 43.2193 204.597 40.8708C208.074 38.5586 208.11 38.5404 208.693 38.2673C208.948 38.1399 209.439 37.8668 209.804 37.6483C210.514 37.2113 214.737 35.063 215.884 34.5715C217.505 33.8614 218.106 33.6065 219.071 33.2242C219.617 33.0057 220.236 32.751 220.436 32.6599C221.437 32.2411 225.606 30.8575 227.354 30.3841C227.955 30.2202 228.865 29.9654 229.375 29.8197C229.885 29.6741 230.467 29.5648 230.668 29.5648C230.868 29.5648 231.451 29.4555 231.924 29.3099C234.637 28.5088 244.504 27.3255 247.017 27.4893C247.417 27.5257 249.802 27.5986 252.297 27.6532ZM279.806 32.3868C280.607 32.6416 281.772 33.024 282.428 33.2242C283.811 33.6612 286.433 34.5716 287.343 34.9357C291.786 36.6652 294.498 37.7939 296.046 38.5222C297.083 38.9956 297.957 39.3961 297.994 39.3961C298.067 39.3961 301.326 40.9436 304.821 42.6368C305.877 43.1465 307.388 43.9294 308.189 44.3663C308.99 44.8033 310.265 45.4951 311.011 45.9139C312.668 46.8241 312.795 46.988 312.431 47.7891C312.267 48.135 311.83 49.0999 311.466 49.9556C311.084 50.8113 310.52 52.0675 310.192 52.7776C309.864 53.4694 309.209 54.9441 308.735 56.0546C308.262 57.147 307.807 58.1301 307.734 58.2394C307.679 58.3304 307.443 58.8402 307.224 59.35C307.006 59.8597 306.587 60.8246 306.278 61.48C305.986 62.1355 305.731 62.7544 305.731 62.8637C305.731 62.9547 305.567 63.1551 305.349 63.3007C305.003 63.5556 304.839 63.501 303.146 62.4996C302.145 61.917 301.271 61.4254 301.198 61.4254C301.107 61.4254 300.852 61.2798 300.615 61.0977C299.869 60.5151 293.479 57.2199 290.347 55.7816C287.143 54.3251 286.888 54.2159 284.794 53.3602C281.171 51.8673 278.313 50.8295 274.872 49.7371C273.579 49.3366 272.378 48.8815 272.232 48.754C272.014 48.5355 272.014 48.3717 272.323 47.4614C272.505 46.8788 272.76 46.1506 272.888 45.8593C273.015 45.5498 273.325 44.6941 273.579 43.9476C273.834 43.2012 274.344 41.7629 274.708 40.7615C275.072 39.7602 275.455 38.6496 275.546 38.3038C275.655 37.9578 275.782 37.5755 275.837 37.4845C276.001 37.2478 277.13 33.9889 277.312 33.2971C277.53 32.4778 277.858 31.9316 278.131 31.9316C278.258 31.9316 279.023 32.1319 279.806 32.3868ZM323.3 33.0422C323.61 33.115 326.268 34.0071 329.217 35.0266C332.167 36.028 335.99 37.3206 337.683 37.8668C339.394 38.4311 340.942 38.9773 341.142 39.0502C341.342 39.1412 342.981 39.7055 344.783 40.3064C346.586 40.9071 348.643 41.5808 349.335 41.8357C350.045 42.0724 351.556 42.5639 352.703 42.9281C353.85 43.3103 354.961 43.6745 355.161 43.7656C355.361 43.8566 357.874 44.7123 360.75 45.6772C367.541 47.9165 367.996 48.0986 367.996 48.4445C367.996 48.6994 367.614 49.6097 367.086 50.7021C366.995 50.8659 366.612 51.758 366.212 52.7047C365.811 53.6515 365.211 54.9805 364.901 55.6906C364.592 56.3824 364.173 57.311 363.973 57.7479C363.772 58.1848 363.026 59.8233 362.334 61.389C361.624 62.9548 360.787 64.7754 360.495 65.4308C360.204 66.0862 359.767 67.0693 359.512 67.6337C359.275 68.1981 358.711 69.4543 358.256 70.4374C357.801 71.4024 357.437 72.2398 357.437 72.2762C357.437 72.3127 357.163 72.9317 356.818 73.6599C356.49 74.3881 356.071 75.3349 355.871 75.7536C355.634 76.318 355.434 76.5365 355.179 76.5365C354.961 76.5183 353.814 75.6443 352.503 74.4792C349.626 71.9121 347.387 70.0005 345.53 68.5076C342.034 65.7039 341.342 65.1577 338.411 62.9183C335.608 60.8064 333.951 59.5684 331.147 57.5657C329.527 56.4006 324.52 52.9778 323.61 52.4316C323.136 52.1403 322.062 51.4303 321.207 50.8841C320.351 50.3197 318.767 49.3185 317.656 48.663C316.273 47.8255 315.635 47.3522 315.599 47.079C315.563 46.8788 315.836 46.0777 316.182 45.3313C316.546 44.5666 316.837 43.9112 316.837 43.8748C316.837 43.8384 317.219 43.0009 317.675 41.9996C318.13 41.0165 318.621 39.9605 318.749 39.6692C318.876 39.3597 319.349 38.3038 319.805 37.3024C320.242 36.3011 320.842 34.9538 321.116 34.2984C321.68 33.0057 322.044 32.587 322.481 32.769C322.627 32.8237 323.009 32.9512 323.3 33.0422ZM249.657 46.1323C254.645 46.3872 258.833 46.9152 263.766 47.9529C268.573 48.9543 268.7 48.9907 268.536 49.6643C268.427 50.1194 267.917 51.5395 267.681 52.0493C267.59 52.2495 267.317 53.0324 267.062 53.7789C266.807 54.5253 266.352 55.7998 266.06 56.6008C265.478 58.2394 265.332 58.294 264.222 57.4201C263.42 56.7829 261.618 55.9454 259.852 55.4174C258.651 55.0351 258.104 54.9805 255.301 54.9805C252.497 54.9623 251.932 55.0169 250.567 55.381C247.618 56.2003 245.415 57.7478 244.559 59.5684C244.231 60.2602 244.177 60.6425 244.249 61.6621C244.322 62.7909 244.304 62.9002 243.94 62.973C243.74 63.0094 241.591 63.0821 239.188 63.1368C234.892 63.2096 234.2 63.2643 229.266 63.9925C226.153 64.4659 225.06 64.6843 221.037 65.7221C218.36 66.3957 212.862 68.271 210.514 69.2905C210.059 69.4908 209.531 69.7274 209.33 69.8002C207.382 70.6377 204.706 71.9303 202.976 72.8771C202.394 73.2048 201.866 73.4051 201.811 73.3505C201.647 73.2048 201.738 70.0915 201.957 67.9796C202.048 67.0329 202.23 64.6479 202.321 62.6999C202.43 60.7518 202.594 59.0769 202.703 58.9677C202.812 58.8584 202.995 58.8766 203.195 59.0222C206.181 61.1341 210.841 61.48 215.702 59.9689C219.198 58.8948 222.129 56.1821 222.621 53.5968C222.766 52.7776 222.293 51.3211 221.674 50.6475C221.019 49.9739 221.219 49.5187 222.311 49.2638C222.785 49.1363 223.749 48.8814 224.441 48.6812C225.77 48.2989 226.043 48.2261 228.902 47.5889C230.468 47.243 231.742 47.0426 235.274 46.5146C235.929 46.4236 237.896 46.2597 239.643 46.1323C241.391 46.0049 242.92 45.8957 243.011 45.8593C243.121 45.8229 243.776 45.841 244.468 45.8774C245.178 45.9139 247.508 46.0413 249.657 46.1323ZM317.183 49.5369C318.148 50.1013 318.967 50.6292 319.022 50.7021C319.076 50.7567 319.313 50.9205 319.568 51.048C320.132 51.3393 322.608 52.9414 324.629 54.3069C325.467 54.8713 326.341 55.4538 326.559 55.5995C326.96 55.8725 328.453 56.8921 329.763 57.8024C330.109 58.0391 331.092 58.7309 331.912 59.3318C332.749 59.9325 333.623 60.5516 333.823 60.6972C337.301 63.0821 345.056 69.3269 351.374 74.7705C354.888 77.8291 354.979 77.9383 354.433 78.9761C354.287 79.2674 353.777 80.3779 353.322 81.4339C352.849 82.4898 352.284 83.7643 352.066 84.274C351.829 84.7656 351.483 85.5486 351.283 86.0037C351.083 86.4588 350.719 87.2781 350.464 87.8243C349.462 90.009 349.244 90.537 349.244 90.719C349.244 90.81 349.08 90.9375 348.88 91.0103C348.643 91.0831 348.206 90.8646 347.387 90.2274C346.185 89.2989 344.474 88.3886 343.017 87.9153C341.616 87.4601 338.848 86.9139 337.847 86.9139C336.955 86.9139 336.846 86.8593 335.116 85.4211C334.133 84.6017 333.277 83.8735 333.223 83.8007C333.168 83.7279 332.622 83.2727 332.021 82.7994C331.402 82.3078 329.891 81.088 328.653 80.0867C323.045 75.5351 311.83 67.5427 308.608 65.7949C307.534 65.2124 307.461 64.9028 308.08 63.5737C308.371 62.9366 308.826 61.9352 309.1 61.3344C309.373 60.7336 309.773 59.8233 310.01 59.3318C310.246 58.8219 310.647 57.9299 310.92 57.329C311.193 56.7283 311.557 55.909 311.739 55.5085C312.031 54.8713 312.231 54.3979 313.014 52.5955C313.087 52.3952 313.323 51.8672 313.524 51.4121C313.706 50.9569 314.015 50.2287 314.197 49.7736C314.616 48.7541 314.816 48.4991 315.144 48.4991C315.308 48.4991 316.218 48.9725 317.183 49.5369ZM273.234 50.3744C275.436 51.0298 276.074 51.2482 277.785 51.8672C278.786 52.2314 279.806 52.5955 280.061 52.6865C280.316 52.7776 280.971 53.0143 281.517 53.2327C282.063 53.4512 282.81 53.7242 283.156 53.8699C283.902 54.143 287.762 55.818 289.71 56.7101C291.458 57.5112 297.557 60.5697 299.45 61.6075C303.51 63.8287 304.548 64.4841 304.603 64.83C304.639 65.0121 304.348 65.8313 303.984 66.6324C303.619 67.4152 303.091 68.5805 302.8 69.2177C302.509 69.8367 302.272 70.3828 302.272 70.4374C302.272 70.492 302.036 71.0382 301.744 71.6572C300.342 74.6977 299.905 75.6626 299.905 75.7172C299.905 75.7536 299.541 76.5547 299.104 77.4832C298.667 78.4117 298.267 79.3584 298.194 79.5587C298.121 79.7772 297.921 80.0867 297.721 80.2687C297.32 80.6329 297.448 80.7056 295.263 78.8669C293.825 77.6471 292.259 76.8096 289.947 76.0085C289.018 75.699 286.961 74.8069 285.395 74.024C283.811 73.2594 281.499 72.1852 280.243 71.639C278.987 71.1111 277.73 70.5649 277.421 70.4374C276.292 69.9277 273.507 68.89 273.27 68.89C273.143 68.89 272.96 68.8171 272.851 68.7261C272.76 68.6532 271.704 68.2709 270.503 67.8886C269.301 67.5063 267.845 67.0511 267.28 66.8691C266.698 66.6688 266.115 66.5231 265.988 66.5231C265.842 66.5231 265.623 66.3957 265.496 66.2501C265.314 66.0316 265.369 65.8677 265.842 65.3397C266.625 64.4476 266.898 63.865 267.134 62.5542C267.244 61.9352 267.553 60.8793 267.808 60.2056C268.063 59.5138 268.391 58.6399 268.518 58.2394C268.646 57.8388 269.028 56.7283 269.374 55.7816C269.702 54.8349 270.211 53.3965 270.484 52.5955C270.758 51.7944 271.122 50.8659 271.285 50.5382C271.613 49.8828 271.595 49.8828 273.234 50.3744ZM199.991 62.5178C199.954 63.774 199.863 65.7767 199.754 66.9783C199.663 68.1799 199.499 70.4192 199.408 71.9485C199.317 73.6781 199.171 74.8433 199.026 75.0072C198.898 75.1528 198.243 75.6262 197.551 76.0449C196.859 76.4637 195.912 77.0462 195.439 77.3375C194.019 78.1932 189.14 81.6888 188.484 82.3078C188.248 82.5445 187.993 82.7265 187.92 82.7265C187.683 82.7265 186.245 84.001 183.751 86.4406C181.784 88.3522 179.217 90.7554 176.76 93.013C176.65 93.1222 175.54 94.1053 174.284 95.1977C173.027 96.2718 171.516 97.6009 170.915 98.1288C168.731 100.041 167.657 100.914 167.547 100.842C167.493 100.805 167.42 99.4943 167.402 97.9468C167.383 96.3993 167.274 94.3238 167.183 93.3407C167.092 92.3576 167.001 91.4109 167.001 91.2288C167.001 91.0285 169.441 88.4615 172.882 85.0387C179.108 78.8122 181.038 76.8278 183.66 73.8966C185.571 71.7483 187.92 69.3996 189.577 67.9432C190.232 67.3606 191.088 66.6142 191.488 66.2501C191.889 65.886 192.581 65.3397 192.999 65.012C193.436 64.6843 194.092 64.1746 194.456 63.8651C194.838 63.5556 195.494 63.0458 195.949 62.7363C196.404 62.4267 197.387 61.7167 198.134 61.1705C198.88 60.6244 199.626 60.1874 199.772 60.2056C200.009 60.242 200.045 60.6244 199.991 62.5178ZM246.161 65.1941C248.036 66.8144 249.839 67.6337 252.934 68.2709C255.137 68.7078 259.634 68.544 261.309 67.9796C261.964 67.7429 262.601 67.4698 262.729 67.3788C263.093 67.0875 264.549 67.1421 265.496 67.4698C265.951 67.6155 266.77 67.8886 267.317 68.0524C268.5 68.3802 272.651 69.7638 273.215 69.9823C273.416 70.0733 274.381 70.4374 275.327 70.8016C276.274 71.1657 277.221 71.5298 277.421 71.6208C278.477 72.0942 279.496 72.5311 279.587 72.5311C279.642 72.5311 280.352 72.8589 281.19 73.2411C282.027 73.6235 283.01 74.0787 283.393 74.2243C284.084 74.5156 284.321 75.08 283.757 75.08C283.575 75.08 282.664 75.1711 281.718 75.2621C278.331 75.6262 275.546 76.8278 273.67 78.7212C272.123 80.3051 271.486 82.2714 271.868 84.2559C272.105 85.4757 272.396 86.0947 273.27 87.2053C274.18 88.3705 273.853 88.4979 271.941 87.715C271.049 87.3509 270.12 86.9867 269.865 86.9139C269.61 86.8229 268.591 86.4588 267.59 86.0947C263.53 84.6382 259.415 83.4366 255.665 82.6537C251.131 81.707 249.693 81.4885 243.74 80.9241C238.933 80.4508 229.084 80.9606 224.532 81.9073C223.877 82.0347 223.021 82.1985 222.621 82.2532C222.22 82.326 221.401 82.4899 220.8 82.6356C220.199 82.7812 218.979 83.0726 218.069 83.291C217.177 83.5094 216.285 83.7461 216.066 83.8189C215.866 83.8917 215.083 84.1466 214.337 84.3651C212.535 84.9112 211.187 85.3664 209.967 85.8216C209.421 86.04 208.766 86.2767 208.511 86.3677C208.001 86.5316 206.945 86.9686 205.871 87.442C205.471 87.624 204.651 87.9881 204.05 88.2612C203.45 88.5343 202.467 88.9712 201.866 89.2625C200.974 89.6994 200.755 89.7358 200.628 89.5356C200.555 89.39 200.573 88.1155 200.682 86.6773C200.773 85.2572 200.992 82.1804 201.138 79.85C201.301 77.3558 201.502 75.3895 201.629 75.1164C201.884 74.6066 202.193 74.4064 204.506 73.2048C205.361 72.7678 206.235 72.3127 206.417 72.2217C206.618 72.1123 207.309 71.7847 207.965 71.4752C216.139 67.7247 224.878 65.2851 232.816 64.5205C233.927 64.4112 235.438 64.2474 236.184 64.1564C236.931 64.0653 239.206 64.0289 241.209 64.0471L244.869 64.1017L246.161 65.1941ZM164.543 72.3673C164.744 73.0044 164.288 73.2411 162.268 73.5325C155.113 74.5338 153.856 74.7341 152.436 74.989C151.69 75.1347 150.379 75.3349 149.523 75.4441C148.668 75.5533 147.193 75.7718 146.246 75.8993C140.966 76.6639 140.366 76.7185 140.111 76.5183C139.856 76.2998 139.965 75.6262 140.293 75.4077C140.384 75.3531 141.13 75.2074 141.95 75.0982C142.769 74.9889 144.207 74.7705 145.154 74.6248C147.375 74.2971 150.324 73.8784 153.074 73.5143C154.275 73.3686 156.078 73.1138 157.079 72.9863C158.08 72.8406 159.883 72.5857 161.084 72.4401C162.268 72.2762 163.287 72.1123 163.342 72.076C163.378 72.0213 163.651 71.985 163.924 71.985C164.27 71.985 164.471 72.0942 164.543 72.3673ZM164.889 77.1373C164.944 77.3558 164.998 77.9565 164.998 78.4481V79.3766L161.776 82.6537C157.115 87.3509 151.417 92.7763 148.522 95.1977C147.939 95.6893 147.066 96.4357 146.61 96.8362C143.843 99.294 141.367 101.297 141.076 101.297C140.912 101.297 140.784 99.7127 140.602 95.1431C140.238 85.858 140.129 80.8513 140.275 80.5236C140.402 80.2505 140.948 80.1231 144.517 79.6315C145.227 79.5223 146.446 79.322 147.248 79.1946C149.232 78.8304 151.071 78.5574 153.347 78.2661C154.403 78.1205 156.078 77.8837 157.079 77.7199C158.08 77.5742 159.755 77.3193 160.811 77.1555C161.867 77.0098 163.05 76.8278 163.451 76.755C164.398 76.5729 164.762 76.664 164.889 77.1373ZM198.825 76.6821C199.062 76.8459 198.953 79.7043 198.498 85.0933C198.407 86.2403 198.279 88.0791 198.206 89.1533L198.097 91.1195L197.369 91.5747C196.987 91.8296 196.477 92.1026 196.258 92.1937C196.04 92.3029 195.73 92.4486 195.585 92.5579C195.275 92.7582 191.652 94.961 190.669 95.5436C190.323 95.7439 189.941 95.9988 189.813 96.108C189.686 96.199 189.049 96.6542 188.393 97.1093C186.955 98.0924 184.807 99.6946 184.352 100.15C184.151 100.332 183.569 100.842 183.022 101.297C182.476 101.752 181.748 102.371 181.384 102.68C181.038 102.972 180.492 103.427 180.182 103.682C179.873 103.918 178.435 105.065 176.996 106.212C171.862 110.327 169.696 111.947 164.015 115.989C162.996 116.699 161.849 117.518 161.448 117.828C160.283 118.665 151.362 124.601 150.033 125.42C149.341 125.838 146.865 127.368 146.61 127.513C146.173 127.805 141.44 130.518 141.149 130.663C141.003 130.754 140.712 130.9 140.511 131.027C139.983 131.355 136.196 133.43 135.869 133.576C135.723 133.649 135.104 133.995 134.503 134.341C132.118 135.706 125.018 139.129 121.304 140.695C119.957 141.277 118.609 141.842 118.3 141.987C118.009 142.115 116.971 142.515 116.024 142.898C115.077 143.262 114.131 143.626 113.93 143.717C113.73 143.808 113.002 144.063 112.292 144.281C111.6 144.5 110.945 144.755 110.835 144.827C110.744 144.9 110.344 145.01 109.962 145.082C109.597 145.155 109.233 145.283 109.179 145.374C109.124 145.465 108.887 145.537 108.651 145.537C108.305 145.537 108.177 145.41 108.086 145.028C108.032 144.755 107.904 144.245 107.831 143.899C107.74 143.553 107.631 142.661 107.558 141.933L107.431 140.622H109.306C111.2 140.622 112.747 140.276 114.568 139.457C116.68 138.492 119.429 135.906 119.756 134.559C119.957 133.776 120.466 133.431 124.071 131.61C127.676 129.771 129.387 128.897 129.861 128.606C130.789 128.041 133.338 126.603 133.411 126.603C133.447 126.603 133.83 126.366 134.267 126.075C134.704 125.784 135.468 125.329 135.96 125.074C136.47 124.801 137.089 124.437 137.343 124.273C137.617 124.109 138.272 123.69 138.8 123.362C140.038 122.616 139.983 122.652 143.042 120.65C146.21 118.574 147.211 117.901 151.034 115.188C153.838 113.203 162.905 106.322 163.36 105.848C163.415 105.794 164.034 105.302 164.725 104.756C166.601 103.299 173.3 97.6192 174.866 96.1627C174.994 96.0353 175.813 95.3069 176.65 94.5605C178.981 92.5032 181.839 89.8269 185.298 86.4588C186.008 85.7488 187.01 84.8384 187.501 84.4197C187.993 84.001 188.594 83.4913 188.83 83.291C189.067 83.0726 189.613 82.6537 190.014 82.3624C190.432 82.0529 191.288 81.4157 191.943 80.9423C193.4 79.8682 198.316 76.5729 198.498 76.5547C198.552 76.5547 198.698 76.6093 198.825 76.6821ZM165.071 81.6706C165.126 81.9073 165.199 83.0361 165.272 84.183C165.326 85.33 165.417 87.1142 165.49 88.1155C165.545 89.1351 165.545 90.1546 165.49 90.3913C165.417 90.6462 164.434 91.6658 163.251 92.7399C162.067 93.7959 161.03 94.7425 160.92 94.8336C160.811 94.9428 160.192 95.4709 159.555 96.017C158.918 96.5632 158.171 97.2186 157.916 97.4553C153.856 101.169 141.913 110.527 141.44 110.345C141.185 110.236 141.076 109.216 140.875 104.974C140.784 103.117 140.766 103.172 142.077 102.116C145.336 99.4579 149.906 95.5436 151.963 93.6502C154.967 90.8829 156.442 89.481 160.356 85.6031C162.759 83.2181 164.78 81.2701 164.853 81.2701C164.926 81.2701 165.035 81.4521 165.071 81.6706ZM165.8 94.9974C165.963 97.7283 165.891 98.0378 165.162 97.6373C164.634 97.3278 160.957 97.3278 160.247 97.6191C159.3 98.0014 159.883 97.1822 161.667 95.6164C162.632 94.779 163.833 93.723 164.343 93.2497C164.853 92.7763 165.363 92.4122 165.454 92.4485C165.563 92.4668 165.709 93.6138 165.8 94.9974ZM154.621 102.953C154.748 104.028 155.24 104.647 156.387 105.229C157.243 105.648 157.516 105.703 159.427 105.684C160.593 105.684 161.539 105.721 161.539 105.775C161.539 105.939 161.212 106.176 155.786 110.327C154.184 111.529 152.436 112.839 151.89 113.222C151.344 113.604 150.197 114.423 149.341 115.024C148.486 115.625 146.647 116.881 145.245 117.828C143.843 118.793 142.496 119.721 142.259 119.903C142.022 120.085 141.695 120.231 141.531 120.231C141.276 120.231 141.24 119.794 141.258 116.189L141.276 112.129L141.895 111.674C142.241 111.401 143.952 110.108 145.718 108.798C147.466 107.469 149.068 106.249 149.268 106.067C149.451 105.903 150.197 105.302 150.889 104.756C151.599 104.21 152.618 103.372 153.165 102.899C153.711 102.407 154.239 102.043 154.348 102.08C154.439 102.116 154.566 102.517 154.621 102.953ZM139.474 104.61C139.71 104.92 139.983 111.856 139.747 111.856C139.637 111.856 138.873 112.366 138.035 113.003C136.47 114.187 133.466 116.189 132.1 116.972C131.681 117.209 130.407 118.046 129.242 118.811C128.095 119.594 127.13 120.231 127.075 120.231C127.039 120.231 126.274 120.668 125.382 121.196C123.252 122.47 118.427 125.092 116.661 125.93C112.401 127.969 110.125 128.97 108.196 129.698C107.85 129.826 107.322 130.044 107.012 130.153C106.43 130.408 104.664 131.064 103.644 131.428C103.298 131.555 102.716 131.755 102.37 131.865C102.024 131.992 101.496 132.156 101.186 132.247C100.895 132.338 100.403 132.484 100.094 132.593C99.5841 132.775 98.0366 133.212 95.9065 133.776C94.0495 134.286 89.9895 135.087 88.0779 135.342C84.291 135.834 77.9735 136.052 77.1542 135.706C76.8265 135.579 76.8265 135.542 77.3363 135.36C78.192 135.014 79.4482 133.886 79.7395 133.194C80.0854 132.338 79.9215 131.573 79.2115 130.845L78.6471 130.263L79.084 130.172C79.3207 130.117 80.7044 130.044 82.1609 129.99C85.4926 129.88 86.8763 129.698 91.446 128.788C93.7036 128.333 94.1405 128.242 95.4513 127.878C96.1978 127.659 97.2355 127.368 97.7271 127.24C98.2369 127.113 98.8923 126.913 99.1836 126.803C101.914 125.875 104.518 124.946 105.374 124.582C105.574 124.509 106.266 124.218 106.921 123.945C110.125 122.652 117.007 119.212 119.319 117.773C119.483 117.682 120.011 117.373 120.503 117.081C121.741 116.39 122.36 116.025 123.252 115.443C123.689 115.17 124.071 114.951 124.108 114.951C124.235 114.951 128.495 112.148 132.246 109.581C133.375 108.798 137.435 105.739 138.308 104.993C139.109 104.319 139.2 104.301 139.474 104.61ZM139.947 113.604C140.002 113.768 140.056 114.332 140.056 114.878C140.056 116.062 139.911 116.171 138.563 115.862C138.035 115.752 137.416 115.625 137.198 115.57C136.816 115.497 136.579 114.951 136.925 114.951C136.998 114.951 137.617 114.587 138.327 114.132C139.018 113.677 139.637 113.313 139.71 113.313C139.783 113.313 139.892 113.44 139.947 113.604ZM128.95 121.615C128.95 122.179 129.46 122.798 130.407 123.381C131.135 123.818 133.302 124.127 134.267 123.927C134.74 123.818 135.195 123.799 135.286 123.854C135.541 124 135.177 124.455 134.594 124.746C134.34 124.855 134.012 125.037 133.866 125.147C133.393 125.456 129.606 127.623 129.315 127.768C129.169 127.823 128.677 128.096 128.222 128.351C127.767 128.606 125.855 129.607 123.98 130.554C120.284 132.411 120.23 132.411 119.866 131.282C119.72 130.882 119.356 130.481 118.7 130.062C117.808 129.462 117.663 129.425 115.879 129.37C114.058 129.298 111.618 129.644 110.926 130.081C110.781 130.172 110.435 130.335 110.162 130.445C109.871 130.554 109.652 130.718 109.652 130.809C109.652 130.9 109.543 130.973 109.397 130.973C109.27 130.973 108.614 131.391 107.959 131.883C105.774 133.54 104.482 135.743 104.591 137.672L104.645 138.674L103.553 139.038C102.952 139.238 102.333 139.457 102.188 139.529C102.024 139.602 101.623 139.73 101.277 139.784C100.931 139.857 100.276 140.021 99.8208 140.167C98.2551 140.622 96.9988 140.95 95.6334 141.241C91.7191 142.06 91.5006 142.097 87.6227 142.661C85.6018 142.97 74.2412 142.952 72.4207 142.643C70.4544 142.315 70.327 142.242 70.327 141.295C70.3451 140.076 70.8185 136.78 71.0188 136.58C71.128 136.471 71.9473 136.507 73.422 136.689C76.2985 137.072 82.1973 137.072 85.256 136.708C88.4238 136.325 92.9025 135.542 94.632 135.069C95.1418 134.942 95.8883 134.778 96.307 134.705C96.744 134.632 97.1263 134.505 97.1991 134.414C97.2537 134.323 97.4904 134.25 97.7271 134.25C97.9638 134.25 99.0015 133.977 100.039 133.631C101.077 133.285 102.188 132.957 102.497 132.884C102.825 132.83 103.134 132.684 103.189 132.593C103.262 132.502 103.462 132.429 103.644 132.429C103.844 132.429 104.263 132.32 104.591 132.174C104.918 132.029 105.974 131.61 106.921 131.246C107.868 130.882 108.924 130.463 109.252 130.317C109.579 130.172 109.98 130.062 110.125 130.062C110.289 130.062 110.526 129.935 110.672 129.789C110.835 129.644 111.145 129.516 111.382 129.516C111.618 129.516 111.837 129.443 111.873 129.352C111.91 129.279 112.547 128.934 113.293 128.606C116.461 127.24 122.105 124.291 126.038 121.961C128.623 120.413 128.95 120.377 128.95 121.615ZM105.264 140.294C105.355 140.622 105.483 141.259 105.556 141.714C105.61 142.169 105.792 143.262 105.956 144.136C106.375 146.339 106.466 146.229 103.371 147.085C102.77 147.249 101.878 147.504 101.368 147.631C100.403 147.904 99.9118 148.013 96.5437 148.705C93.4486 149.343 91.2457 149.725 90.6813 149.725C90.39 149.725 89.4615 149.834 88.5876 149.98C83.8722 150.744 70.3998 150.271 69.7079 149.306C69.4349 148.96 69.8536 144.154 70.1813 143.771C70.327 143.589 70.6364 143.535 71.2191 143.589C71.6742 143.626 73.0397 143.771 74.2412 143.899C76.7355 144.154 84.5823 144.063 86.6214 143.753C87.3314 143.644 89.0428 143.389 90.4447 143.171C93.2848 142.752 95.2875 142.351 96.6165 141.969C97.0899 141.824 97.6178 141.714 97.7817 141.714C97.9273 141.714 98.51 141.587 99.0743 141.423C101.314 140.786 102.679 140.385 103.371 140.148C104.008 139.948 104.482 139.821 104.955 139.73C105.01 139.73 105.155 139.985 105.264 140.294ZM53.1586 146.757C54.0507 146.703 55.0703 146.612 55.4526 146.539C55.8531 146.466 56.3447 146.484 56.545 146.575C56.7635 146.685 57.4006 146.939 57.9468 147.176C58.493 147.394 59.0938 147.649 59.2759 147.759C59.9859 148.123 64.3918 149.488 66.4855 149.998C68.124 150.398 68.1604 150.453 68.0512 151.891C67.8509 154.258 67.5596 156.079 67.3412 156.37C67.1409 156.661 67.0499 156.661 66.267 156.388C65.7936 156.224 65.2293 156.097 65.0472 156.097C64.8469 156.097 64.5374 156.024 64.3553 155.933C64.1915 155.842 63.3176 155.533 62.4073 155.26C60.2772 154.622 57.2368 153.403 55.1431 152.347C52.9766 151.254 50.2639 149.616 49.6449 149.051C49.2079 148.651 49.1715 148.542 49.2989 147.595C49.481 146.047 49.4628 146.084 50.5916 146.484C51.3745 146.776 51.8842 146.812 53.1586 146.757ZM106.357 147.613C106.466 147.759 106.648 148.378 106.757 149.015C106.848 149.652 107.067 150.872 107.212 151.746C107.376 152.601 107.467 153.53 107.431 153.803C107.358 154.404 106.976 154.586 104.372 155.169C103.426 155.387 102.188 155.678 101.641 155.806C99.1653 156.425 96.489 156.88 89.9895 157.772C87.8594 158.063 75.9708 158.045 74.0592 157.754C73.2582 157.645 71.9837 157.462 71.2373 157.371C70.4908 157.262 69.5987 157.098 69.2528 156.989L68.6338 156.789L68.743 155.751C69.1982 151.436 69.2528 151.09 69.5441 150.854C69.7079 150.744 69.981 150.672 70.1267 150.726C70.2905 150.763 71.1644 150.89 72.0565 150.981C72.9668 151.09 74.5508 151.254 75.6067 151.382C78.6107 151.709 85.5837 151.436 89.9895 150.781C90.7359 150.672 91.8829 150.526 92.5383 150.453C93.1938 150.38 94.1769 150.216 94.7231 150.107C95.2693 149.98 96.3434 149.761 97.0899 149.597C97.8363 149.452 98.9469 149.197 99.5477 149.051C100.148 148.887 100.931 148.705 101.277 148.633C102.37 148.396 103.699 148.032 104.736 147.704C105.956 147.303 106.084 147.285 106.357 147.613ZM50.0272 150.635C50.4459 151.309 56.3629 154.258 60.4957 155.824C61.5516 156.224 65.2657 157.335 65.9939 157.444C66.358 157.517 66.8314 157.699 67.0499 157.881C67.414 158.172 67.4322 158.264 67.2501 159.465C67.1409 160.175 66.9588 161.777 66.8496 163.052C66.6493 165.091 66.5947 165.364 66.2488 165.528C65.739 165.783 48.8074 165.965 48.1884 165.746C47.7878 165.582 47.7514 165.473 47.7697 164.435C47.7697 163.798 47.8425 162.87 47.9335 162.378C48.0245 161.868 48.1884 160.157 48.2976 158.573C48.3886 156.971 48.5525 155.169 48.6617 154.568C48.7528 153.949 48.8438 152.838 48.862 152.092C48.8802 151.345 48.9348 150.672 48.9713 150.581C49.0805 150.399 49.8997 150.417 50.0272 150.635Z" fill="url(#paint0_linear_1_3)"/>
<defs>
<linearGradient id="paint0_linear_1_3" x1="259" y1="-15" x2="-15" y2="217" gradientUnits="userSpaceOnUse">
<stop stop-color="#7000FE"/>
<stop offset="1" stop-color="#FF005C"/>
</linearGradient>
</defs>
</svg>
